<?xml version="1.0" encoding="utf-8"?>
<!-- Generator: Adobe Illustrator 25.2.1, SVG Export Plug-In . SVG Version: 6.00 Build 0)  -->
<svg version="1.1" xmlns="http://www.w3.org/2000/svg" xmlns:xlink="http://www.w3.org/1999/xlink" x="0px" y="0px"
	 viewBox="0 0 1000 1000" style="enable-background:new 0 0 1000 1000;" xml:space="preserve">
<style type="text/css">
	.st0{fill:#334063;}
	.st1{fill:#00D8E8;}
	.st2{display:none;}
	.st3{display:inline;fill:#F20C65;}
</style>
<g id="Layer_1">
	<g>
		<g>
			<g>
				<g>
					<polygon class="st0" points="626.38,201.39 555.94,121.46 587.86,0.72 674.06,21.04 					"/>
				</g>
				<g>
					<polygon class="st0" points="460.26,819.96 358.02,858.59 325.22,979.12 411.27,1000 					"/>
				</g>
				<g>
					<polygon class="st0" points="358.02,858.59 555.94,120.74 626.38,200.67 457.64,829.59 					"/>
				</g>
			</g>
		</g>
		<g>
			<g>
				<g>
					<g>
						<path class="st0" d="M339.47,636.32v135.04L39.07,553.84c-3.97-2.88-7.75-6.06-11.03-9.54c-2.58-2.58-4.97-5.27-7.16-8.05
							l101.95-56.74L339.47,636.32z"/>
					</g>
				</g>
				<path class="st1" d="M339.47,187.66v135.04L122.84,479.51l-94.8,64.79c-2.58-2.58-4.97-5.27-7.16-8.05
					c-2.09-2.58-3.98-5.36-5.66-8.15C6.18,513.7,1.22,496.9,1.22,479.51c0-29.31,14.11-57.04,37.86-74.23L339.47,187.66z"/>
			</g>
			<g>
				<g>
					<g>
						<path class="st0" d="M661.72,636.32v135.04l300.4-217.52c3.98-2.88,7.75-6.06,11.03-9.54c2.58-2.58,4.97-5.27,7.15-8.05
							l-101.95-56.74L661.72,636.32z"/>
					</g>
				</g>
				<path class="st1" d="M661.72,187.66v135.04l216.63,156.81l94.8,64.79c2.58-2.58,4.97-5.27,7.15-8.05
					c2.09-2.58,3.98-5.36,5.66-8.15c9.04-14.41,14.01-31.2,14.01-48.59c0-29.31-14.11-57.04-37.86-74.23L661.72,187.66z"/>
			</g>
		</g>
	</g>
</g>
<g id="Layer_2" class="st2">
	<rect x="359.73" y="769.7" class="st3" width="34.1" height="34.1"/>
</g>
</svg>
